<svg height="512pt" viewBox="0 -10 300 300" width="512pt" xmlns="http://www.w3.org/2000/svg"><path d="m228.792969 134.414062c0 44.730469-36.261719 80.996094-80.996094 80.996094s-80.996094-36.265625-80.996094-80.996094c0-44.734374 36.261719-81 80.996094-81s80.996094 36.265626 80.996094 81zm0 0" fill="#f6cb43"/><path d="m223.382812 163.558594c-11.691406 30.328125-41.125 51.847656-75.582031 51.847656-34.460937 0-63.894531-21.519531-75.597656-51.847656 11.703125-30.328125 41.136719-51.847656 75.597656-51.847656 34.457031 0 63.890625 21.519531 75.582031 51.847656zm0 0" fill="#fab03c"/><g fill="#f8e98e"><path d="m147.796875 32.898438c-4.269531 0-7.726563-3.460938-7.726563-7.726563v-17.445313c0-4.269531 3.457032-7.726562 7.726563-7.726562 4.265625 0 7.726563 3.460938 7.726563 7.726562v17.445313c0 4.265625-3.460938 7.726563-7.726563 7.726563zm0 0"/><path d="m147.796875 268.828125c-4.269531 0-7.726563-3.460937-7.726563-7.726563v-17.445312c0-4.269531 3.457032-7.726562 7.726563-7.726562 4.265625 0 7.726563 3.457031 7.726563 7.726562v17.445312c0 4.265626-3.460938 7.726563-7.726563 7.726563zm0 0"/><path d="m93.183594 47.535156c-2.671875 0-5.269532-1.386718-6.699219-3.863281l-8.722656-15.109375c-2.132813-3.695312-.867188-8.421875 2.828125-10.554688 3.691406-2.132812 8.421875-.867187 10.554687 2.828126l8.722657 15.109374c2.132812 3.695313.867187 8.417969-2.828126 10.550782-1.21875.703125-2.546874 1.039062-3.855468 1.039062zm0 0"/><path d="m211.144531 251.855469c-2.667969 0-5.265625-1.386719-6.695312-3.863281l-8.722657-15.109376c-2.132812-3.695312-.867187-8.421874 2.828126-10.554687 3.695312-2.132813 8.421874-.867187 10.554687 2.828125l8.71875 15.109375c2.136719 3.695313.867187 8.421875-2.824219 10.554687-1.21875.699219-2.546875 1.035157-3.859375 1.035157zm0 0"/><path d="m53.183594 87.519531c-1.3125 0-2.640625-.332031-3.855469-1.035156l-15.109375-8.722656c-3.695312-2.132813-4.960938-6.859375-2.828125-10.554688 2.132813-3.695312 6.859375-4.960937 10.554687-2.828125l15.109376 8.722656c3.695312 2.132813 4.960937 6.859376 2.828124 10.554688-1.433593 2.480469-4.03125 3.863281-6.699218 3.863281zm0 0"/><path d="m257.503906 205.484375c-1.3125 0-2.640625-.335937-3.855468-1.035156l-15.109376-8.722657c-3.695312-2.132812-4.960937-6.859374-2.828124-10.554687 2.132812-3.695313 6.859374-4.960937 10.554687-2.828125l15.105469 8.722656c3.695312 2.132813 4.964844 6.859375 2.828125 10.554688-1.429688 2.476562-4.027344 3.863281-6.695313 3.863281zm0 0"/><path d="m274.484375 142.140625h-17.445313c-4.269531 0-7.726562-3.460937-7.726562-7.726563 0-4.269531 3.457031-7.726562 7.726562-7.726562h17.445313c4.265625 0 7.726563 3.460938 7.726563 7.726562 0 4.265626-3.460938 7.726563-7.726563 7.726563zm0 0"/><path d="m38.554688 142.140625h-17.445313c-4.265625 0-7.726563-3.460937-7.726563-7.726563 0-4.269531 3.460938-7.726562 7.726563-7.726562h17.445313c4.265624 0 7.726562 3.460938 7.726562 7.726562 0 4.265626-3.460938 7.726563-7.726562 7.726563zm0 0"/><path d="m242.410156 87.519531c-2.671875 0-5.269531-1.382812-6.699218-3.863281-2.132813-3.695312-.867188-8.421875 2.828124-10.554688l15.109376-8.722656c3.691406-2.132812 8.417968-.867187 10.550781 2.828125 2.136719 3.695313.871093 8.421875-2.828125 10.554688l-15.105469 8.722656c-1.214844.703125-2.546875 1.035156-3.855469 1.035156zm0 0"/><path d="m38.089844 205.484375c-2.671875 0-5.269532-1.386719-6.699219-3.863281-2.132813-3.695313-.867187-8.421875 2.828125-10.554688l15.109375-8.722656c3.695313-2.132812 8.417969-.867188 10.554687 2.828125 2.132813 3.695313.863282 8.421875-2.828124 10.554687l-15.109376 8.722657c-1.21875.699219-2.546874 1.035156-3.855468 1.035156zm0 0"/><path d="m202.410156 47.535156c-1.3125 0-2.640625-.335937-3.855468-1.039062-3.695313-2.132813-4.960938-6.855469-2.828126-10.550782l8.722657-15.109374c2.132812-3.695313 6.855469-4.960938 10.554687-2.828126 3.695313 2.132813 4.960938 6.859376 2.824219 10.554688l-8.71875 15.109375c-1.433594 2.476563-4.03125 3.863281-6.699219 3.863281zm0 0"/><path d="m84.445312 251.855469c-1.3125 0-2.640624-.335938-3.855468-1.035157-3.695313-2.136718-4.960938-6.859374-2.828125-10.554687l8.722656-15.109375c2.132813-3.695312 6.859375-4.960938 10.554687-2.828125 3.695313 2.132813 4.960938 6.859375 2.828126 10.554687l-8.722657 15.109376c-1.433593 2.476562-4.03125 3.863281-6.699219 3.863281zm0 0"/></g></svg>