<svg id="Capa_1" enable-background="new 0 0 512 512" height="300" viewBox="0 90 512 300" width="300" xmlns="http://www.w3.org/2000/svg"><g><g id="Cloud_3_"><g><path d="m434.801 227.199c-6.601-43.2-43.801-76.199-88.801-76.199-16.8 0-32.999 4.799-47.1 13.5-10.8-17.7-25.499-32.4-42.9-42.599-17.701-10.201-38.401-15.901-60-15.901-66.301 0-120 53.699-120 120v1.199c-42.599 7.202-76 44.402-76 88.801 0 49.501 41.499 90 91 90h330c49.501 0 91-40.499 91-90 0-45-33.999-82.2-77.199-88.801z" fill="#edf5ff"/></g></g><path d="m512 316c0 49.501-41.499 90-91 90h-165v-284.099c17.401 10.199 32.1 24.899 42.9 42.599 14.101-8.701 30.3-13.5 47.1-13.5 45 0 82.2 32.999 88.801 76.199 43.2 6.601 77.199 43.801 77.199 88.801z" fill="#edf5ff"/></g></svg>